<svg id="Layer_3" data-name="Layer 3" xmlns="http://www.w3.org/2000/svg" xmlns:xlink="http://www.w3.org/1999/xlink" viewBox="0 0 723.73 632.67"><defs><style>.cls-1{fill:#d9e4f9;}.cls-2{fill:#eaeaf4;}.cls-3{fill:url(#linear-gradient);}.cls-4{fill:#56548c;}.cls-5{fill:url(#linear-gradient-2);}.cls-6{fill:url(#linear-gradient-3);}.cls-7{fill:url(#linear-gradient-4);}.cls-8{fill:url(#linear-gradient-5);}.cls-9{fill:url(#linear-gradient-6);}.cls-10{fill:url(#linear-gradient-7);}.cls-11{fill:url(#linear-gradient-8);}.cls-12{fill:url(#linear-gradient-9);}.cls-13{fill:url(#linear-gradient-10);}.cls-14{fill:url(#linear-gradient-11);}.cls-15{fill:url(#linear-gradient-12);}.cls-16{fill:url(#linear-gradient-13);}.cls-17{fill:url(#linear-gradient-14);}.cls-18{fill:url(#linear-gradient-15);}.cls-19{fill:url(#linear-gradient-16);}.cls-20{fill:url(#linear-gradient-17);}.cls-21{fill:url(#linear-gradient-18);}.cls-22{fill:url(#linear-gradient-19);}.cls-23{fill:url(#linear-gradient-20);}.cls-24{fill:url(#linear-gradient-21);}.cls-25{fill:url(#linear-gradient-22);}.cls-26{fill:#4e7eac;}.cls-27{fill:#3ed9c7;}.cls-28{fill:#001c45;}.cls-29{fill:#ff9a8d;}.cls-30{fill:#ba5964;}.cls-31,.cls-33{fill:none;stroke-miterlimit:10;}.cls-31{stroke:#001c45;stroke-linecap:round;stroke-width:1.71px;}.cls-32{fill:#363a68;}.cls-33{stroke:#3a75a5;}.cls-34{fill:#3b55ce;}</style><linearGradient id="linear-gradient" x1="646.75" y1="248.74" x2="646.75" y2="494.13" gradientUnits="userSpaceOnUse"><stop offset="0" stop-color="#eaeaf4"/><stop offset="1" stop-color="#b1b2f3"/></linearGradient><linearGradient id="linear-gradient-2" x1="121.78" y1="358.53" x2="121.78" y2="514.66" xlink:href="#linear-gradient"/><linearGradient id="linear-gradient-3" x1="409.53" y1="667.68" x2="409.53" y2="781.19" gradientUnits="userSpaceOnUse"><stop offset="0" stop-color="#74dbff"/><stop offset="0.16" stop-color="#77cefd"/><stop offset="0.44" stop-color="#7fadf6"/><stop offset="0.69" stop-color="#878cf0"/><stop offset="0.77" stop-color="#7e7ff3"/><stop offset="0.92" stop-color="#685efb"/><stop offset="1" stop-color="#5b4bff"/></linearGradient><linearGradient id="linear-gradient-4" x1="411.54" y1="694.01" x2="411.54" y2="781.19" gradientUnits="userSpaceOnUse"><stop offset="0" stop-color="#5277ff"/><stop offset="1" stop-color="#30009f"/></linearGradient><linearGradient id="linear-gradient-5" x1="341.98" y1="547.55" x2="341.98" y2="781.19" xlink:href="#linear-gradient-3"/><linearGradient id="linear-gradient-6" x1="346.13" y1="586.25" x2="346.13" y2="781.19" xlink:href="#linear-gradient-4"/><linearGradient id="linear-gradient-7" x1="310.51" y1="620.78" x2="310.51" y2="781.19" xlink:href="#linear-gradient-3"/><linearGradient id="linear-gradient-8" x1="310.48" y1="655.45" x2="310.48" y2="781.19" xlink:href="#linear-gradient-4"/><linearGradient id="linear-gradient-9" x1="282.69" y1="674.23" x2="282.69" y2="781.19" xlink:href="#linear-gradient-3"/><linearGradient id="linear-gradient-10" x1="280.35" y1="697.87" x2="280.35" y2="781.19" xlink:href="#linear-gradient-4"/><linearGradient id="linear-gradient-11" x1="387.09" y1="607.14" x2="387.09" y2="781.19" xlink:href="#linear-gradient-3"/><linearGradient id="linear-gradient-12" x1="388.18" y1="640.06" x2="388.18" y2="781.19" xlink:href="#linear-gradient-4"/><linearGradient id="linear-gradient-13" x1="904.54" y1="664.99" x2="904.54" y2="781.19" xlink:href="#linear-gradient-3"/><linearGradient id="linear-gradient-14" x1="906.59" y1="691.94" x2="906.59" y2="781.19" xlink:href="#linear-gradient-4"/><linearGradient id="linear-gradient-15" x1="835.38" y1="542" x2="835.38" y2="781.19" xlink:href="#linear-gradient-3"/><linearGradient id="linear-gradient-16" x1="839.63" y1="581.62" x2="839.63" y2="781.19" xlink:href="#linear-gradient-4"/><linearGradient id="linear-gradient-17" x1="803.16" y1="616.97" x2="803.16" y2="781.19" xlink:href="#linear-gradient-3"/><linearGradient id="linear-gradient-18" x1="803.13" y1="652.47" x2="803.13" y2="781.19" xlink:href="#linear-gradient-4"/><linearGradient id="linear-gradient-19" x1="774.68" y1="671.69" x2="774.68" y2="781.19" xlink:href="#linear-gradient-3"/><linearGradient id="linear-gradient-20" x1="772.29" y1="695.89" x2="772.29" y2="781.19" xlink:href="#linear-gradient-4"/><linearGradient id="linear-gradient-21" x1="881.56" y1="603" x2="881.56" y2="781.19" xlink:href="#linear-gradient-3"/><linearGradient id="linear-gradient-22" x1="882.68" y1="636.71" x2="882.68" y2="781.19" xlink:href="#linear-gradient-4"/></defs><title>no money</title><path class="cls-1" d="M714.67,786.92c0,3.37-51.65,6.11-115.35,6.11S484,790.29,484,786.92s51.65-6.11,115.36-6.11S714.67,783.54,714.67,786.92Z" transform="translate(-219.95 -160.35)"/><path class="cls-2" d="M910,212.27h-2.76c0-.34,0-.68,0-1a15.54,15.54,0,0,0-15.49-15.5H879.67c0-.22,0-.45,0-.68a16.22,16.22,0,0,0-16.17-16.17h-3.16a16.22,16.22,0,0,0-16.18,16.17c0,.23,0,.46,0,.68H829a15.55,15.55,0,0,0-15.5,15.5c0,.34,0,.68,0,1h-7.78a14.47,14.47,0,0,0,0,28.94H910a14.47,14.47,0,1,0,0-28.94Z" transform="translate(-219.95 -160.35)"/><path class="cls-2" d="M398,257.54h1.38c0-.16,0-.34,0-.51a7.76,7.76,0,0,1,7.75-7.74h6.06c0-.12,0-.23,0-.35a8.11,8.11,0,0,1,8.09-8.08h1.58a8.11,8.11,0,0,1,8.09,8.08c0,.12,0,.23,0,.35h7.61a7.76,7.76,0,0,1,7.74,7.74,4.26,4.26,0,0,1,0,.51h3.9a7.24,7.24,0,0,1,0,14.47H398a7.24,7.24,0,0,1,0-14.47Z" transform="translate(-219.95 -160.35)"/><ellipse class="cls-3" cx="646.75" cy="371.44" rx="76.98" ry="122.7"/><polygon class="cls-4" points="686.62 425.73 650.57 457.36 649.26 377.04 644.24 377.04 643.37 430.59 609.48 401.12 643.22 439.92 640.74 591.98 652.76 591.98 650.72 466.63 686.62 425.73"/><ellipse class="cls-5" cx="121.78" cy="436.59" rx="48.98" ry="78.06"/><polygon class="cls-4" points="147.14 471.13 124.21 491.26 123.38 440.16 120.18 440.16 119.63 474.23 98.06 455.48 119.53 480.17 117.95 576.91 125.61 576.91 124.3 497.16 147.14 471.13"/><polygon class="cls-4" points="100.14 403.39 53.34 444.46 51.64 340.19 45.13 340.19 44 409.71 0 371.45 43.8 421.82 40.58 619.22 56.2 619.22 53.54 456.5 100.14 403.39"/><path class="cls-6" d="M438.19,667.77q8.64,3-19.64,113.42H398.18c10.32-28.41,20-57.05,29.24-85.84.5-1.57-.44-1.85-1-.35q-16.35,42.74-30.89,86.19H378.85Q429.08,664.63,438.19,667.77Z" transform="translate(-219.95 -160.35)"/><path class="cls-7" d="M426.41,695c.57-1.5,1.51-1.22,1,.35-9.24,28.79-18.92,57.43-29.24,85.84h-2.66Q410,737.77,426.41,695Z" transform="translate(-219.95 -160.35)"/><path class="cls-8" d="M365.91,781.19H344.22l.18-8.08.38-14.19q.87-28.39,1.75-56.79,1.77-56.8,3.55-113.62c.09-3-.89-3-1.07,0q-3.42,56.7-5.34,113.56-.94,28.41-1.35,56.84l-.13,14.21v8.12H318.06c15.58-173.21,26-233.92,33-233.64S363.77,608.72,365.91,781.19Z" transform="translate(-219.95 -160.35)"/><path class="cls-9" d="M349,588.46c.18-2.93,1.16-3,1.07,0q-1.77,56.81-3.55,113.62-.88,28.39-1.75,56.79l-.38,14.19-.18,8.08h-2v-8.12l.13-14.21q.39-28.43,1.35-56.84Q345.55,645.18,349,588.46Z" transform="translate(-219.95 -160.35)"/><path class="cls-10" d="M325.88,781.19H313.37c-.5-41.49-2.22-83-4.71-124.46-.1-1.76-1.08-1.66-1.07,0q.56,62.22,4.24,124.42h-16.7C296.68,685,302,620.92,306.52,620.78Q313.68,620.56,325.88,781.19Z" transform="translate(-219.95 -160.35)"/><path class="cls-11" d="M313.37,781.19h-1.54q-3.74-62.12-4.24-124.42c0-1.7,1-1.8,1.07,0C311.15,698.19,312.87,739.7,313.37,781.19Z" transform="translate(-219.95 -160.35)"/><path class="cls-12" d="M302.77,781.19H290.68C285,753.52,278.35,726,271.1,698.72c-.34-1.29-1.28-1-1,.24q8,41.37,18.5,82.23H271.65q-13.84-105.44-6.49-106.94Q272.73,672.71,302.77,781.19Z" transform="translate(-219.95 -160.35)"/><path class="cls-13" d="M290.68,781.19h-2.12Q278,740.39,270.06,699c-.24-1.26.7-1.53,1-.24C278.35,726,285,753.52,290.68,781.19Z" transform="translate(-219.95 -160.35)"/><path class="cls-14" d="M423,607.17q7.77,2.48-38.18,174H366.34q24-69.24,45.82-139.24c.73-2.33-.22-2.57-1-.34Q386.48,711,364,781.19H350.09Q415,604.64,423,607.17Z" transform="translate(-219.95 -160.35)"/><path class="cls-15" d="M411.14,641.61c.8-2.23,1.75-2,1,.34q-22,69.91-45.82,139.24H364Q386.42,711,411.14,641.61Z" transform="translate(-219.95 -160.35)"/><path class="cls-16" d="M933.88,665.07q8.83,3-20.11,116.12H892.91c10.57-29.08,20.48-58.41,29.94-87.88.51-1.61-.45-1.89-1-.36q-16.74,43.75-31.63,88.24H873.13Q924.55,661.87,933.88,665.07Z" transform="translate(-219.95 -160.35)"/><path class="cls-17" d="M921.82,693c.58-1.53,1.54-1.25,1,.36-9.46,29.47-19.37,58.8-29.94,87.88h-2.72Q905,736.73,921.82,693Z" transform="translate(-219.95 -160.35)"/><path class="cls-18" d="M859.87,781.19h-22.2l.19-8.27.39-14.53q.88-29.07,1.78-58.14,1.83-58.15,3.64-116.32c.1-3.09-.91-3-1.09,0q-3.51,58.05-5.47,116.26-1,29.08-1.38,58.19l-.14,14.55v8.31H810.89c16-177.32,26.6-239.48,33.81-239.19S857.68,604.63,859.87,781.19Z" transform="translate(-219.95 -160.35)"/><path class="cls-19" d="M842.58,583.88c.18-3,1.19-3,1.09,0q-1.81,58.16-3.64,116.32-.88,29.09-1.78,58.14l-.39,14.53-.19,8.27h-2.09v-8.31l.14-14.55q.4-29.1,1.38-58.19Q839,642,842.58,583.88Z" transform="translate(-219.95 -160.35)"/><path class="cls-20" d="M818.9,781.19H806.09c-.51-42.48-2.27-85-4.82-127.41-.11-1.81-1.11-1.71-1.09,0q.55,63.69,4.33,127.37H787.42c1.58-98.45,7-164.07,11.66-164.22Q806.4,616.75,818.9,781.19Z" transform="translate(-219.95 -160.35)"/><path class="cls-21" d="M806.09,781.19h-1.58q-3.82-63.59-4.33-127.37c0-1.75,1-1.85,1.09,0C803.82,696.22,805.58,738.71,806.09,781.19Z" transform="translate(-219.95 -160.35)"/><path class="cls-22" d="M795.23,781.19H782.86c-5.83-28.33-12.62-56.46-20-84.43-.35-1.32-1.31-1-1.07.25q8.21,42.35,18.94,84.18H763.37q-14.18-107.94-6.64-109.48Q764.5,670.14,795.23,781.19Z" transform="translate(-219.95 -160.35)"/><path class="cls-23" d="M782.86,781.19h-2.17Q769.92,739.42,761.75,697c-.24-1.3.72-1.57,1.07-.25C770.24,724.73,777,752.86,782.86,781.19Z" transform="translate(-219.95 -160.35)"/><path class="cls-24" d="M918.3,603q8,2.52-39.09,178.15H860.32q24.52-70.89,46.9-142.55c.75-2.38-.22-2.63-1-.35q-25.25,71-48.32,142.9H843.68Q910.12,600.44,918.3,603Z" transform="translate(-219.95 -160.35)"/><path class="cls-25" d="M906.19,638.29c.81-2.28,1.78-2,1,.35q-22.5,71.58-46.9,142.55h-2.45Q880.88,709.37,906.19,638.29Z" transform="translate(-219.95 -160.35)"/><path class="cls-26" d="M588.22,455.81c-20.1-5-30.87-4.23-30.87-4.23L556,465.87a17.79,17.79,0,0,0-6.76,8.8l-2,16.56L564.4,615.77l5.07,9.2c8.39,78.11,9.77,152.34,9.77,152.34l8.85.82,3.32-51.83c4.71-8.23,3.88-29.62,3.88-29.62l-5-25.92L590,653.07c.55-51.84-3.87-118.76-3.87-118.76l5.27-4.07h7.47l.42-74.43Z" transform="translate(-219.95 -160.35)"/><path class="cls-26" d="M604,455.94c20.09-5,26.85-4.21,26.85-4.21L636.19,466A17.79,17.79,0,0,1,643,474.8l2,16.57L627.79,615.91l-5.07,9.19C614.33,703.21,613,777.45,613,777.45l-8.86.82-3.31-51.84c-4.71-8.22-3.88-29.61-3.88-29.61l5-25.92.28-17.7c-.55-51.83,3.87-118.75,3.87-118.75l-5.27-4.08h-7.47l-.42-74.43Z" transform="translate(-219.95 -160.35)"/><path class="cls-27" d="M647.22,306.73a1.94,1.94,0,0,1,0-.24,20.68,20.68,0,0,1,.16-3.62v-.36a65.06,65.06,0,0,1-.66-6.78,39.64,39.64,0,0,1,1.12-10.84l-.6-.45v0l-.11,0-.05,0v0l-44.63-17.9L552,278.06v42l15,84.56-3.32,17.77-3.65,2.11L556,464.85c50.23,9.63,68.56,5.61,80.19.12l-.08-122.45L647.22,316Z" transform="translate(-219.95 -160.35)"/><polygon class="cls-28" points="262.1 299.7 342.02 379.6 337.35 317.86 262.1 299.7"/><polygon class="cls-28" points="496.03 306.29 415.31 376.37 408.7 321.81 496.03 306.29"/><path class="cls-27" d="M553.3,277.86c-15.65,7-37.3,22.72-59.63,62.59,0,0-22.09,42.34-23.56,109.05l7.52-.85c2.19-27,7.47-62.63,28.74-103.52,0,0,21.12-34.75,42.18-45.46l3.75-3.86Z" transform="translate(-219.95 -160.35)"/><path class="cls-29" d="M470.11,449.5l2.67,12.61,2,1.05,2.46-.65,2.67,1.28,2.12-1.6,8.69,7.18,1.24-1.45-7-7.37,8,4.51.92-1.86-8.9-5.69s-5.1-6.58,1.62-8.77a3.06,3.06,0,0,0,1-2.49l-9.43,2.59-.53-.19Z" transform="translate(-219.95 -160.35)"/><path class="cls-27" d="M646.07,284c15.65,7,37.3,22.72,59.64,62.59,0,0,22.08,42.34,23.55,109.05l-7.51-.84c-2.19-27-7.47-62.63-28.74-103.52,0,0-21.13-34.75-42.19-45.46L647.08,302Z" transform="translate(-219.95 -160.35)"/><path class="cls-29" d="M729.26,455.68l-2.67,12.62-2,1-2.45-.64L719.52,470l-2.13-1.6-8.69,7.17-1.24-1.44,7-7.37-8,4.51-.92-1.86,8.91-5.7s5.1-6.58-1.63-8.77a3,3,0,0,1-1-2.48l9.43,2.58.54-.18Z" transform="translate(-219.95 -160.35)"/><path class="cls-29" d="M590.52,254.47a88.37,88.37,0,0,1-.84,10.43c-.65,3.05,0,4.66-9.32,6.27,0,0,3.79,12.2,19.93,14.29s22.72-10.6,22.24-10.6a33.85,33.85,0,0,1-6.43-2.79c-1.44-.93-.37-18.73-.37-18.73Z" transform="translate(-219.95 -160.35)"/><path class="cls-29" d="M571.11,215.47s-5.85-1.61-9,2.48-.77,12.64,5.28,14.7c5.79,2,8.12-1.13,8.12-1.13Z" transform="translate(-219.95 -160.35)"/><path class="cls-30" d="M565.41,219.25a5.55,5.55,0,0,1,4.88.44c.46.36-.3,1.13-.74,1-2.49-.87-5.52-.93-6.68,2-.06.15-.17,0-.15-.11A4,4,0,0,1,565.41,219.25Z" transform="translate(-219.95 -160.35)"/><path class="cls-30" d="M566.57,219.46c.27-.14.91.53.85.72a3.36,3.36,0,0,0-1.32,1.22,4.48,4.48,0,0,0-.53,2.81,5,5,0,0,0,4.09,4.7c.05,0,.12.13.05.15-2.08.57-4.5-1.54-5-3.4C564.12,223.59,564.2,220.64,566.57,219.46Z" transform="translate(-219.95 -160.35)"/><path class="cls-29" d="M630,210.9s5.54-2.49,9.24,1.07,2.71,12.37-3,15.34c-5.42,2.85-8.2.13-8.2.13Z" transform="translate(-219.95 -160.35)"/><path class="cls-30" d="M636.18,213.76a5.51,5.51,0,0,0-4.75,1.19c-.4.43.47,1.07.88.85,2.33-1.24,5.31-1.77,6.9.93.09.15.17,0,.14-.13A4,4,0,0,0,636.18,213.76Z" transform="translate(-219.95 -160.35)"/><path class="cls-30" d="M635.07,214.14c-.29-.09-.82.67-.73.85a3.42,3.42,0,0,1,1.49,1,4.43,4.43,0,0,1,.95,2.69,5,5,0,0,1-3.31,5.28s-.1.15,0,.16c2.14.24,4.2-2.22,4.43-4.14C638.13,217.85,637.6,215,635.07,214.14Z" transform="translate(-219.95 -160.35)"/><path class="cls-29" d="M611.88,179.63a28.06,28.06,0,0,0-14.17-2.79,28.69,28.69,0,0,0-13.82,4.73c-9.49,6.46-14.15,17.84-13.29,29.1v.05a83.71,83.71,0,0,0,1.31,9.59l.87,4.44a67.51,67.51,0,0,0,5.51,16.42,25.86,25.86,0,0,0,48.54-3.76,67.79,67.79,0,0,0,2.91-17.08l.17-4.52a82.31,82.31,0,0,0-.18-9.68v0A31.87,31.87,0,0,0,611.88,179.63Z" transform="translate(-219.95 -160.35)"/><path class="cls-31" d="M558.34,182s11.27-.9,14.83,5.22" transform="translate(-219.95 -160.35)"/><path class="cls-31" d="M559.25,171.13s13.41,3.85,14,17.16" transform="translate(-219.95 -160.35)"/><path class="cls-28" d="M577.76,187.78s6.4,12.48,18.69,17.34,21.11-9,20.57-15.82c0,0,10.15,21.34,12.94,21.6a41.68,41.68,0,0,0,4-16.81c0-9.09-3.72-14.05-7.95-17.88a9,9,0,0,0-10.37-1.29c-1.82-4.6-7.57-14.56-21.12-14.57-15.14,0-22.12,9.67-21.72,25.68,0,0-5.44-2.22-9.54,3.92s-1.78,19.23,2,25.74c0,0,4-.79,5.88-.22,0,0-1.45-10.73,2-19.6C576,188.66,577.76,187.78,577.76,187.78Z" transform="translate(-219.95 -160.35)"/><path class="cls-32" d="M590.44,743.41l-.1,0c-1,.37-2,.72-3,1C588.69,744,589.68,743.68,590.44,743.41Z" transform="translate(-219.95 -160.35)"/><path class="cls-32" d="M639.06,778.08c-16,0-20.69-13.81-21.89-19-4.48.68-9,1.13-13.39,1.5-.59,5.59-3.26,24-3.26,24h57.82S658.82,778.08,639.06,778.08Z" transform="translate(-219.95 -160.35)"/><path class="cls-32" d="M588.29,760.6a41.65,41.65,0,0,1-11-3.31l.3,2.16s-2.08,21-18.46,21-16,6.47-16,6.47h47.94s-2.79-23.27-2.79-25.43C588.3,761.39,588.3,761.08,588.29,760.6Z" transform="translate(-219.95 -160.35)"/><line class="cls-33" x1="342.02" y1="379.6" x2="337.35" y2="317.86"/><line class="cls-33" x1="415.31" y1="376.37" x2="408.7" y2="321.81"/><path class="cls-34" d="M756.73,475.23l-22,21.24-8-7.11,19.4-23.55Zm-27.58,28.23a5.78,5.78,0,0,1-1.95,1.45,6.24,6.24,0,0,1-4.57.27,5.8,5.8,0,0,1-2.08-1.2,6,6,0,0,1-1.46-1.94,6.14,6.14,0,0,1-.58-2.25,6.3,6.3,0,0,1,.31-2.31,5.63,5.63,0,0,1,1.22-2.09,6.05,6.05,0,0,1,4.2-2.06,6.36,6.36,0,0,1,2.32.29,5.93,5.93,0,0,1,3.54,3.13,6.31,6.31,0,0,1,.56,2.27,6.1,6.1,0,0,1-.31,2.34A5.8,5.8,0,0,1,729.15,503.46Z" transform="translate(-219.95 -160.35)"/><path class="cls-34" d="M749.2,519.28l-2.38-9.5a16.21,16.21,0,0,1,5.08-.91,11,11,0,0,1,3.71.61,9.26,9.26,0,0,1,2.68,1.51,26,26,0,0,1,2,1.87c.58.62,1.13,1.16,1.64,1.62a3,3,0,0,0,1.69.79,2.63,2.63,0,0,0,1.2-.18,2.58,2.58,0,0,0,1.1-.89,3.8,3.8,0,0,0,.64-1.71,6.92,6.92,0,0,0-.22-2.62,18.61,18.61,0,0,0-.79-2.36,25.12,25.12,0,0,0-1.29-2.77,29.08,29.08,0,0,0-1.67-2.77,16.44,16.44,0,0,0-1.92-2.34l10.72-4c.58.59,1.21,1.27,1.86,2a21,21,0,0,1,1.91,2.59,26.69,26.69,0,0,1,1.71,3.21,23.28,23.28,0,0,1,1.33,3.91,22.34,22.34,0,0,1,.68,6.78,16.42,16.42,0,0,1-1.47,6.09,13.88,13.88,0,0,1-3.66,4.8,14.11,14.11,0,0,1-5.89,2.9,10.37,10.37,0,0,1-4.48.31,8.1,8.1,0,0,1-3.14-1.28,11.89,11.89,0,0,1-2.4-2.2c-.71-.86-1.46-1.69-2.25-2.48a13,13,0,0,0-2.68-2A8.17,8.17,0,0,0,749.2,519.28Zm-7.08,3.26a5.68,5.68,0,0,1-2.42.1,6.27,6.27,0,0,1-2.19-.81,6.15,6.15,0,0,1-1.74-1.56,5.84,5.84,0,0,1-1-2.16,6,6,0,0,1-.11-2.42,6.16,6.16,0,0,1,2.35-3.92,6.17,6.17,0,0,1,6.83-.36,6.45,6.45,0,0,1,1.75,1.55,5.86,5.86,0,0,1,1.05,2.19,5.68,5.68,0,0,1,.09,2.39,6.27,6.27,0,0,1-2.39,4A5.85,5.85,0,0,1,742.12,522.54Z" transform="translate(-219.95 -160.35)"/><path class="cls-34" d="M459.05,466.92l21.25,22-7.12,8-23.55-19.4Zm28.23,27.58a5.85,5.85,0,0,1,1.46,1.95,6.21,6.21,0,0,1,.56,2.26A6.08,6.08,0,0,1,489,501a5.85,5.85,0,0,1-1.2,2.07,5.91,5.91,0,0,1-1.93,1.47,6.23,6.23,0,0,1-2.26.57,6.08,6.08,0,0,1-2.31-.3,5.77,5.77,0,0,1-2.09-1.22,6,6,0,0,1-1.46-1.93,5.86,5.86,0,0,1-.6-2.28,6.28,6.28,0,0,1,.29-2.31,5.93,5.93,0,0,1,3.13-3.54,6.26,6.26,0,0,1,4.61-.26A6,6,0,0,1,487.28,494.5Z" transform="translate(-219.95 -160.35)"/><path class="cls-34" d="M449.18,517.69a12.74,12.74,0,0,0-3.21,1.06c-1,.49-2,1-2.93,1.6a11.76,11.76,0,0,1-3,1.29,8.28,8.28,0,0,1-3.39.18,10.54,10.54,0,0,1-4.13-1.76,14.26,14.26,0,0,1-4.61-4.68,13.85,13.85,0,0,1-1.88-5.73,16.61,16.61,0,0,1,.61-6.24,23.84,23.84,0,0,1,5.4-9.43,27.43,27.43,0,0,1,2.68-2.48,22.36,22.36,0,0,1,2.64-1.82c.88-.5,1.68-.94,2.43-1.3l8.82,7.28a17.33,17.33,0,0,0-2.58,1.59,29,29,0,0,0-2.49,2.06,27.12,27.12,0,0,0-2.13,2.19,19.06,19.06,0,0,0-1.51,2,6.81,6.81,0,0,0-1.07,2.4,3.78,3.78,0,0,0,0,1.82,2.38,2.38,0,0,0,.75,1.2,2.44,2.44,0,0,0,1.07.57,3.1,3.1,0,0,0,1.86-.19c.63-.27,1.33-.6,2.08-1a24.14,24.14,0,0,1,2.49-1.1,8.83,8.83,0,0,1,3-.55,10.92,10.92,0,0,1,3.7.63,16.08,16.08,0,0,1,4.5,2.53L453,518A8,8,0,0,0,449.18,517.69Zm7.71,4a6.37,6.37,0,0,1-.91-2.18,6.08,6.08,0,0,1-.05-2.33,5.52,5.52,0,0,1,.87-2.24,5.73,5.73,0,0,1,1.71-1.72,6.55,6.55,0,0,1,2.16-.89,6,6,0,0,1,2.35,0,5.79,5.79,0,0,1,2.25.9,6,6,0,0,1,1.73,1.7,6.15,6.15,0,0,1,.9,2.15,6.23,6.23,0,0,1,0,2.32,6.16,6.16,0,0,1-.9,2.26,6,6,0,0,1-1.69,1.7,6.19,6.19,0,0,1-2.14.9,6.34,6.34,0,0,1-2.34,0,5.75,5.75,0,0,1-2.26-.89A6,6,0,0,1,456.89,521.68Z" transform="translate(-219.95 -160.35)"/></svg>